<svg class="c6gvb" xmlns="http://www.w3.org/2000/svg" width="20" height="20">
    <path d="M17 2H3a1 1 0 0 0-1 1v14a1 1 0 0 0 1 1h14a1 1 0 0 0 1-1V3a1 1 0 0 0-1-1Zm-1.708 3.791-.858.823a.251.251 0 0 0-.1.241V12.9a.251.251 0 0 0 .1.241l.838.823v.181h-4.215v-.181l.868-.843c.085-.085.085-.11.085-.241V7.993L9.6 14.124h-.329l-2.81-6.13V12.1a.567.567 0 0 0 .156.472l1.129 1.37v.181h-3.2v-.181l1.129-1.37a.547.547 0 0 0 .146-.472V7.351A.416.416 0 0 0 5.683 7l-1-1.209V5.61H7.8l2.4 5.283 2.122-5.283h2.971l-.001.181Z"></path>
</svg>