<svg class="c6gvb" xmlns="http://www.w3.org/2000/svg" width="20" height="20">
    <path d="M17.968 3.276a.338.338 0 0 0-.232-.253 1.192 1.192 0 0 0-.63.045S3.087 8.106 2.286 8.664c-.172.121-.23.19-.259.272-.138.4.293.573.293.573l3.613 1.177a.388.388 0 0 0 .183-.011c.822-.519 8.27-5.222 8.7-5.38.068-.02.118 0 .1.049-.172.6-6.606 6.319-6.64 6.354a.138.138 0 0 0-.05.118l-.337 3.528s-.142 1.1.956 0a30.66 30.66 0 0 1 1.9-1.738c1.242.858 2.58 1.806 3.156 2.3a1 1 0 0 0 .732.283.825.825 0 0 0 .7-.622S17.894 5.292 17.98 3.909c.008-.135.021-.217.021-.317a1.177 1.177 0 0 0-.032-.316Z"></path>
</svg>